<svg xmlns="http://www.w3.org/2000/svg">
  <symbol id="icon--google" role="img" fill="currentColor" preserveAspectRatio="xMinYMin">
    <title>google icon</title>
    <g>
      <path class="st0" d="M5.4,13.3c0-0.9,0.1-1.7,0.4-2.5L1.4,7.4C0.5,9.2,0,11.2,0,13.3c0,2.1,0.5,4.1,1.4,5.9l4.5-3.4
        C5.6,15,5.4,14.2,5.4,13.3z" fill="#FBBC05" />
      <path class="st1" d="M13.3,5.4c1.9,0,3.6,0.7,4.9,1.8l3.9-3.9C19.7,1.3,16.7,0,13.3,0C8,0,3.5,3,1.4,7.4l4.5,3.4
        C6.9,7.7,9.8,5.4,13.3,5.4z" fill="#EA4335" />
      <path class="st2" d="M13.3,21.2c-3.5,0-6.4-2.3-7.5-5.4l-4.5,3.4c2.2,4.4,6.7,7.4,11.9,7.4c3.2,0,6.3-1.2,8.7-3.3L17.7,20
        C16.5,20.8,15,21.2,13.3,21.2z" fill="#34A853" />
      <path class="st3" d="M13.3,10.9V16h7.1c-0.4,1.8-1.3,3.1-2.7,4l4.2,3.3c2.4-2.3,4-5.7,4-10c0-0.8-0.1-1.6-0.3-2.4H13.3z" fill="#4285F4" />
    </g>
  </symbol>
</svg>